<svg xmlns="http://www.w3.org/2000/svg" version="1.1" xmlns:xlink="http://www.w3.org/1999/xlink" viewBox="0 0 200 200"><rect width="200" height="200" fill="url('#gradient')"></rect><defs><linearGradient id="gradient" gradientTransform="rotate(45 0.5 0.5)"><stop offset="0%" stop-color="#0bc7e7" style="--darkreader-inline-stopcolor: var(--darkreader-background-0bc7e7, #099fb9);" data-darkreader-inline-stopcolor=""></stop><stop offset="100%" stop-color="#224b45" style="--darkreader-inline-stopcolor: var(--darkreader-background-224b45, #1b3c37);" data-darkreader-inline-stopcolor=""></stop></linearGradient></defs><g><g fill="#1f2e91" transform="matrix(12.659340659340659,0,0,12.659340659340659,15.562270867955561,190.007288644602)" stroke="#00cbff" stroke-width="0.2" style="--darkreader-inline-fill: var(--darkreader-text-1f2e91, #7ea8e3); --darkreader-inline-stroke: var(--darkreader-text-00cbff, #1ad0ff);" data-darkreader-inline-fill="" data-darkreader-inline-stroke=""><path d="M6.69-4.82L4.50-4.82L4.50 0L1.07 0L1.07-14.22L6.75-14.22Q8.38-14.22 9.63-13.62Q10.89-13.02 11.58-11.91Q12.27-10.80 12.27-9.39L12.27-9.39Q12.27-7.31 10.78-6.07Q9.29-4.82 6.69-4.82L6.69-4.82ZM4.50-11.57L4.50-7.47L6.75-7.47Q7.74-7.47 8.27-7.97Q8.79-8.47 8.79-9.38L8.79-9.38Q8.79-10.37 8.25-10.97Q7.71-11.56 6.79-11.57L6.79-11.57L4.50-11.57Z"></path></g></g></svg>